<?xml version="1.0" encoding="utf-8"?>
<!-- Generator: Adobe Illustrator 16.0.0, SVG Export Plug-In . SVG Version: 6.00 Build 0)  -->
<!DOCTYPE svg PUBLIC "-//W3C//DTD SVG 1.1//EN" "http://www.w3.org/Graphics/SVG/1.1/DTD/svg11.dtd">
<svg version="1.1" id="Calque_1" xmlns="http://www.w3.org/2000/svg" xmlns:xlink="http://www.w3.org/1999/xlink" x="0px" y="0px"
	 width="200px" height="200px" viewBox="0 0 200 200" enable-background="new 0 0 200 200" xml:space="preserve">
<line fill="none" stroke="#000000" stroke-miterlimit="10" x1="9.207" y1="43.189" x2="63.4" y2="100.84"/>
<line fill="none" stroke="#000000" stroke-miterlimit="10" x1="9.207" y1="43.189" x2="63.4" y2="100.84"/>
<line fill="none" stroke="#000000" stroke-miterlimit="10" x1="6.069" y1="154.583" x2="63.72" y2="100.393"/>
<g>
	<line fill="none" stroke="#000000" stroke-miterlimit="10" x1="87.082" y1="120.02" x2="69.624" y2="101.449"/>
	<line fill="none" stroke="#000000" stroke-miterlimit="10" x1="87.082" y1="120.02" x2="69.624" y2="101.449"/>
	<line fill="none" stroke="#000000" stroke-miterlimit="10" x1="87.64" y1="83.992" x2="69.067" y2="101.449"/>
</g>
<g>
	<line fill="none" stroke="#000000" stroke-miterlimit="10" x1="113.111" y1="129.84" x2="86.68" y2="101.727"/>
	<line fill="none" stroke="#000000" stroke-miterlimit="10" x1="113.111" y1="129.84" x2="86.68" y2="101.727"/>
	<line fill="none" stroke="#000000" stroke-miterlimit="10" x1="113.951" y1="75.295" x2="85.837" y2="101.727"/>
</g>
<g>
	<line fill="none" stroke="#000000" stroke-miterlimit="10" x1="137.897" y1="136.171" x2="105.328" y2="101.533"/>
	<line fill="none" stroke="#000000" stroke-miterlimit="10" x1="137.897" y1="136.171" x2="105.328" y2="101.533"/>
	<line fill="none" stroke="#000000" stroke-miterlimit="10" x1="138.934" y1="68.963" x2="104.291" y2="101.533"/>
</g>
<g>
	<line fill="none" stroke="#000000" stroke-miterlimit="10" x1="139.625" y1="45.527" x2="193.82" y2="103.178"/>
	<line fill="none" stroke="#000000" stroke-miterlimit="10" x1="139.625" y1="45.527" x2="193.82" y2="103.178"/>
	<line fill="none" stroke="#000000" stroke-miterlimit="10" x1="136.281" y1="156.811" x2="193.932" y2="102.619"/>
</g>
<g>
	<line fill="none" stroke="#000000" stroke-miterlimit="10" x1="156.37" y1="77.145" x2="163.008" y2="84.203"/>
	<line fill="none" stroke="#000000" stroke-miterlimit="10" x1="156.37" y1="77.145" x2="163.008" y2="84.203"/>
	<line fill="none" stroke="#000000" stroke-miterlimit="10" x1="156.161" y1="90.838" x2="163.221" y2="84.203"/>
</g>
<g>
	<line fill="none" stroke="#000000" stroke-miterlimit="10" x1="51.071" y1="93.993" x2="57.708" y2="101.052"/>
	<line fill="none" stroke="#000000" stroke-miterlimit="10" x1="51.071" y1="93.993" x2="57.708" y2="101.052"/>
	<line fill="none" stroke="#000000" stroke-miterlimit="10" x1="50.861" y1="107.687" x2="57.919" y2="101.052"/>
</g>
</svg>
